<mxfile host="app.diagrams.net" modified="2023-09-15T01:15:23.584Z" agent="Mozilla/5.0 (Windows NT 10.0; Win64; x64) AppleWebKit/537.36 (KHTML, like Gecko) Chrome/116.0.0.0 Safari/537.36" version="21.3.7" etag="o8Uyskl0JJh0hg64Abnk" type="github">
  <diagram name="Page-1" id="KcvUk4ELhtfDF2DfxyxL">
    <mxGraphModel>
      <root>
        <mxCell id="0" />
        <mxCell id="1" parent="0" />
      </root>
    </mxGraphModel>
  </diagram>
</mxfile>
